# xmcd
#
# Track frame offsets:
# 150
# 16050
# 43601
# 59701
# 97587
# 110447
# 130832
# 146268
# 168970
# 204786
#
# Disc length: 3076 seconds
#
# Revision: 0
# Processed by: cddbd v1.4PL0 Copyright (c) Steve Scherf et al.
# Submitted via: Axialis_AX_CDPlayer 2.6
#
DISCID=760c020a
DTITLE=Penny Lang - Penny Lang and Friends Live
DYEAR=1900
DGENRE=
TTITLE0=I've Been Living With The Blues
TTITLE1=Twelve Gates To The City
TTITLE2=I'm Thinking Tonight Of My Blue Eyes
TTITLE3=Frankie And Johnny
TTITLE4=Bouquet Of Roses
TTITLE5=Jailer, Bring Me Water
TTITLE6=Song For Bridget's Film
TTITLE7=Bye Bye Blues
TTITLE8=We Shall Not Be Moved
TTITLE9=Penny's Blues
EXTD=
EXTT0=
EXTT1=
EXTT2=
EXTT3=
EXTT4=
EXTT5=
EXTT6=
EXTT7=
EXTT8=
EXTT9=
PLAYORDER=
